<svg data-v-fde0c5aa="" xmlns="http://www.w3.org/2000/svg" viewBox="0 0 300 300" class="iconLeft"><!----><defs data-v-fde0c5aa=""><!----></defs><rect data-v-fde0c5aa="" fill="#C54365" x="0" y="0" width="300px" height="300px" class="logo-background-square"></rect><defs data-v-fde0c5aa=""><!----></defs><g data-v-fde0c5aa="" id="ae703b79-d68b-43a5-a812-fd8192d2b76b" fill="#E5DFCE" transform="matrix(2.0430320609655817,0,0,2.0430320609655817,93.5133261001733,132.2051906710543)"><path d="M1.01 4.05L1.01 10.11C1.01 12.59 2.66 13.82 4.66 13.82C6.68 13.82 8.33 12.59 8.33 10.11L8.33 4.05L6.90 4.05L6.90 10.11C6.90 11.68 5.89 12.50 4.66 12.50C3.42 12.50 2.45 11.68 2.45 10.11L2.45 4.05ZM15.50 7.13C14.99 6.64 14.06 6.15 12.80 6.15C11.21 6.15 10.04 6.92 10.04 8.27C10.04 9.09 10.46 9.60 11.09 9.91C11.72 10.22 12.75 10.40 13.55 10.72C14.11 10.95 14.35 11.19 14.35 11.59C14.35 12.31 13.65 12.68 12.70 12.68C11.69 12.68 10.78 12.25 10.25 11.75L9.73 12.87C10.28 13.41 11.35 13.92 12.71 13.92C14.18 13.92 15.67 13.33 15.67 11.59C15.67 10.74 15.30 10.25 14.55 9.87C13.72 9.46 12.64 9.30 11.98 9.02C11.59 8.85 11.35 8.62 11.35 8.25C11.35 7.74 11.80 7.34 12.74 7.34C13.69 7.34 14.52 7.76 15.01 8.27ZM23.04 10.49C23.06 10.33 23.07 10.18 23.07 10.00C23.07 7.52 21.76 6.15 19.94 6.15C18.12 6.15 16.81 7.52 16.81 10.00C16.81 12.60 18.26 13.92 20.02 13.92C21.35 13.92 22.18 13.17 22.58 12.61L21.70 11.84C21.36 12.33 20.80 12.71 20.08 12.71C19.10 12.71 18.21 12.03 18.06 10.49ZM19.95 7.35C20.94 7.35 21.67 8.08 21.83 9.49L18.06 9.49C18.20 8.12 18.93 7.35 19.95 7.35ZM24.93 6.33L24.93 13.73L26.26 13.73L26.26 8.71C26.67 7.73 27.33 7.41 28.11 7.41C29.09 7.41 29.74 7.90 29.74 9.18L29.74 13.73L31.07 13.73L31.07 9.04C31.07 6.97 30.03 6.15 28.53 6.15C27.52 6.15 26.74 6.52 26.19 7.24L26.19 6.33ZM39.10 10.49C39.12 10.33 39.13 10.18 39.13 10.00C39.13 7.52 37.81 6.15 35.99 6.15C34.17 6.15 32.87 7.52 32.87 10.00C32.87 12.60 34.31 13.92 36.08 13.92C37.41 13.92 38.23 13.17 38.64 12.61L37.76 11.84C37.42 12.33 36.86 12.71 36.13 12.71C35.15 12.71 34.27 12.03 34.12 10.49ZM36.01 7.35C37.00 7.35 37.73 8.08 37.88 9.49L34.12 9.49C34.26 8.12 34.99 7.35 36.01 7.35ZM40.12 6.33L40.12 7.42L40.96 7.42L40.96 11.91C40.96 13.19 41.72 13.80 42.63 13.80C43.16 13.80 43.74 13.59 44.00 13.29L44.23 12.07C43.89 12.39 43.55 12.52 43.16 12.52C42.60 12.52 42.29 12.21 42.29 11.62L42.29 7.42L44.18 7.42L44.18 6.33L42.29 6.33L42.29 3.89L40.96 4.33L40.96 6.33ZM49.28 4.05L49.28 13.73L52.12 13.73C54.91 13.73 57.13 11.86 57.13 8.86C57.13 5.88 54.94 4.05 52.12 4.05ZM50.72 5.38L52.14 5.38C54.12 5.38 55.69 6.66 55.69 8.88C55.69 11.10 54.11 12.42 52.14 12.42L50.72 12.42ZM63.77 6.59C63.52 6.36 63.13 6.15 62.47 6.15C61.57 6.15 60.86 6.52 60.34 7.22L60.34 6.33L59.08 6.33L59.08 13.73L60.41 13.73L60.41 8.74C60.83 7.70 61.46 7.41 62.22 7.41C62.66 7.41 63.01 7.50 63.28 7.77ZM65.09 6.33L65.09 13.73L66.42 13.73L66.42 6.33ZM65.74 3.50C65.30 3.50 64.99 3.82 64.99 4.30C64.99 4.76 65.30 5.10 65.74 5.10C66.19 5.10 66.51 4.76 66.51 4.30C66.51 3.82 66.19 3.50 65.74 3.50ZM67.68 6.33L70.50 13.73L71.82 13.73L74.65 6.33L73.29 6.33L71.16 12.19L69.02 6.33ZM81.47 10.49C81.48 10.33 81.49 10.18 81.49 10.00C81.49 7.52 80.18 6.15 78.36 6.15C76.54 6.15 75.24 7.52 75.24 10.00C75.24 12.60 76.68 13.92 78.44 13.92C79.77 13.92 80.60 13.17 81.00 12.61L80.12 11.84C79.79 12.33 79.23 12.71 78.50 12.71C77.52 12.71 76.64 12.03 76.48 10.49ZM78.37 7.35C79.37 7.35 80.09 8.08 80.25 9.49L76.48 9.49C76.62 8.12 77.35 7.35 78.37 7.35Z"></path></g><defs data-v-fde0c5aa=""><!----></defs><g data-v-fde0c5aa="" id="34c97cdc-353a-49e7-acea-bbee813b5063" stroke="none" fill="#E5DFCE" transform="matrix(1.7740328525943614,0,0,1.7740328525943614,40,128.71160576886766)"><path d="M2.641 12.193C3.093 12.065 3.551 12 4 12h16c.449 0 .907.065 1.359.193a.49.49 0 0 0 .136.019h.01c.28-.013.509-.221.51-.5a.497.497 0 0 0-.113-.317L18.87 4.518A2.247 2.247 0 0 0 16.75 3h-9.5c-.954 0-1.806.61-2.104 1.479L2.048 11.51a.5.5 0 0 0 .593.683zM20 13H4c-2.206 0-4 1.794-4 4s1.794 4 4 4h16c2.206 0 4-1.794 4-4s-1.794-4-4-4zM4 17c-.551 0-1-.449-1-1s.449-1 1-1c.551 0 1 .449 1 1s-.449 1-1 1zm15.5 2h-11a.5.5 0 0 1 0-1h11a.5.5 0 0 1 0 1zm0-2h-11a.5.5 0 0 1 0-1h11a.5.5 0 0 1 0 1z"></path></g><!----></svg>