<?xml version="1.0" encoding="utf-8"?>
<!-- Generator: Adobe Illustrator 27.5.0, SVG Export Plug-In . SVG Version: 6.00 Build 0)  -->
<svg version="1.1" xmlns="http://www.w3.org/2000/svg" xmlns:xlink="http://www.w3.org/1999/xlink" x="0px" y="0px"
	 viewBox="0 0 750 500" style="enable-background:new 0 0 750 500;" xml:space="preserve">
<g id="BACKGROUND_1_">
	<rect style="fill:#F9F9F9;" width="750" height="500"/>
</g>
<g id="OBJECTS">
	<g>
		<path style="fill:#D1E7D9;" d="M73.145,418.208c0,0,3.775-10.813,17.127-15.758c13.352-4.945,3.758-25.714,26.308-39.758
			c22.549-14.044,12.462-57.56,34.418-65.275s39.824,19.988,74.637,9.994c34.813-9.994,104.439-67.62,163.516-30.104
			c59.077,37.516,48.264,43.648,91.385,47.209c43.121,3.56,55.78-14.242,74.967-3.363c19.187,10.879,11.67,15.939,34.418,20.332
			c22.747,4.393,13.648,19.426,22.945,28.327s30.264,13.121,29.077,48.396H73.145z"/>
		<g>
			
				<rect x="94.348" y="160.163" transform="matrix(0.5736 -0.8192 0.8192 0.5736 -122.5247 209.3205)" style="fill:#CBDAFC;" width="90.881" height="124.363"/>
			
				<line style="fill:none;stroke:#F9F9F9;stroke-linecap:round;stroke-miterlimit:10;" x1="88.455" y1="222.895" x2="122.749" y2="173.918"/>
			
				<line style="fill:none;stroke:#F9F9F9;stroke-linecap:round;stroke-miterlimit:10;" x1="96.095" y1="228.245" x2="107.79" y2="211.544"/>
			
				<line style="fill:none;stroke:#F9F9F9;stroke-linecap:round;stroke-miterlimit:10;" x1="109.089" y1="237.344" x2="143.383" y2="188.367"/>
			
				<line style="fill:none;stroke:#F9F9F9;stroke-linecap:round;stroke-miterlimit:10;" x1="116.729" y1="242.693" x2="151.023" y2="193.716"/>
			
				<line style="fill:none;stroke:#F9F9F9;stroke-linecap:round;stroke-miterlimit:10;" x1="124.37" y1="248.043" x2="140.438" y2="225.095"/>
		</g>
		<path style="fill:#50799A;" d="M232.992,181.159c0,0-0.3-53.071,53.071-60.642c53.372-7.571,67.421,32.521,126.909,7.211
			s110.469-35.765,143.35,2.307c32.881,38.073,20.19,139.6-77.588,167.722c-97.778,28.122-135.569-2.19-216.755,27.257
			c-52.484,19.036-102.104,20.25-122.15-5.769c-29.708-38.56-5.769-79.318,28.555-87.394
			C202.707,223.775,220.338,221.034,232.992,181.159z"/>
		<linearGradient id="SVGID_1_" gradientUnits="userSpaceOnUse" x1="429.7383" y1="142.8293" x2="496.991" y2="141.6425">
			<stop  offset="0" style="stop-color:#000000"/>
			<stop  offset="0.628" style="stop-color:#000000;stop-opacity:0"/>
		</linearGradient>
		<path style="opacity:0.75;fill:url(#SVGID_1_);" d="M424.133,123.121v53.272h49.451v-68.676
			C458.076,110.756,441.508,116.186,424.133,123.121z"/>
		
			<linearGradient id="SVGID_00000173144887925519244160000000159155682551766446_" gradientUnits="userSpaceOnUse" x1="546.5693" y1="187.8717" x2="490.3934" y2="122.9924">
			<stop  offset="0" style="stop-color:#000000"/>
			<stop  offset="0.628" style="stop-color:#000000;stop-opacity:0"/>
		</linearGradient>
		<path style="opacity:0.75;fill:url(#SVGID_00000173144887925519244160000000159155682551766446_);" d="M556.323,130.035
			c-3.38-3.914-6.955-7.307-10.708-10.232l-47.569,48.38l20.722,56.682l52.357-25.847
			C575.561,171.657,569.736,145.566,556.323,130.035z"/>
		<g>
			<path style="fill:none;stroke:#F9F9F9;stroke-linecap:round;stroke-miterlimit:10;" d="M487.303,160.972
				c5.456-13.221,2.777-34.122,2.777-34.122"/>
			<path style="fill:none;stroke:#F9F9F9;stroke-linecap:round;stroke-miterlimit:10;" d="M191.766,277.479
				c0,0,6.551,14.025,23.92,15.914"/>
			<path style="fill:none;stroke:#F9F9F9;stroke-linecap:round;stroke-miterlimit:10;" d="M280.382,138.385
				c0,0-3.311,12.529,4.549,20.229"/>
			<path style="fill:none;stroke:#F9F9F9;stroke-linecap:round;stroke-miterlimit:10;" d="M217.867,305.567
				c0,0-12.401-1.582-26.101,6.923"/>
		</g>
	</g>
	
		<linearGradient id="SVGID_00000155865507526903978110000004662403407134561432_" gradientUnits="userSpaceOnUse" x1="518.6984" y1="213.0422" x2="557.9951" y2="220.163">
		<stop  offset="0.004" style="stop-color:#67B292"/>
		<stop  offset="1" style="stop-color:#7AC8A9"/>
	</linearGradient>
	<path style="fill:url(#SVGID_00000155865507526903978110000004662403407134561432_);" d="M528.922,206.252
		c8.509,7.211,27.656-4.627,36.742,2.655c9.086,7.283,6.985,25.683-13.665,23.968c-14.017-1.164-26.249-14.869-26.249-14.869
		L528.922,206.252z"/>
	<g>
		<g>
			
				<rect x="310.108" y="74.125" transform="matrix(0.9848 -0.1736 0.1736 0.9848 -18.2678 63.8109)" style="fill:#CBDAFC;" width="90.881" height="124.363"/>
			
				<line style="fill:none;stroke:#F9F9F9;stroke-linecap:round;stroke-miterlimit:10;" x1="318.861" y1="100.399" x2="377.742" y2="90.016"/>
			
				<line style="fill:none;stroke:#F9F9F9;stroke-linecap:round;stroke-miterlimit:10;" x1="320.48" y1="109.584" x2="340.559" y2="106.044"/>
			
				<line style="fill:none;stroke:#F9F9F9;stroke-linecap:round;stroke-miterlimit:10;" x1="323.235" y1="125.205" x2="382.116" y2="114.823"/>
			
				<line style="fill:none;stroke:#F9F9F9;stroke-linecap:round;stroke-miterlimit:10;" x1="324.854" y1="134.391" x2="383.736" y2="124.008"/>
			
				<line style="fill:none;stroke:#F9F9F9;stroke-linecap:round;stroke-miterlimit:10;" x1="326.474" y1="143.576" x2="385.355" y2="133.194"/>
			
				<linearGradient id="SVGID_00000174597727775083560320000003786698290285670036_" gradientUnits="userSpaceOnUse" x1="381.8528" y1="148.9802" x2="333.5891" y2="72.7604">
				<stop  offset="0" style="stop-color:#000000"/>
				<stop  offset="0.628" style="stop-color:#000000;stop-opacity:0"/>
			</linearGradient>
			<polygon style="opacity:0.75;fill:url(#SVGID_00000174597727775083560320000003786698290285670036_);" points="393.083,87.499 
				355.915,95.207 361.759,196.464 411.096,189.653 			"/>
			
				<line style="fill:none;stroke:#F9F9F9;stroke-linecap:round;stroke-miterlimit:10;" x1="328.094" y1="152.762" x2="363.187" y2="146.574"/>
		</g>
		<g>
			<rect x="367.956" y="97.075" style="fill:#CBDAFC;" width="90.881" height="124.363"/>
			
				<line style="fill:none;stroke:#F9F9F9;stroke-linecap:round;stroke-miterlimit:10;" x1="383.502" y1="117.523" x2="443.292" y2="117.523"/>
			
				<line style="fill:none;stroke:#F9F9F9;stroke-linecap:round;stroke-miterlimit:10;" x1="383.502" y1="126.85" x2="403.89" y2="126.85"/>
			
				<line style="fill:none;stroke:#F9F9F9;stroke-linecap:round;stroke-miterlimit:10;" x1="383.502" y1="142.712" x2="443.292" y2="142.712"/>
			
				<line style="fill:none;stroke:#F9F9F9;stroke-linecap:round;stroke-miterlimit:10;" x1="383.502" y1="152.039" x2="443.292" y2="152.039"/>
			
				<line style="fill:none;stroke:#F9F9F9;stroke-linecap:round;stroke-miterlimit:10;" x1="383.502" y1="161.367" x2="443.292" y2="161.367"/>
			
				<line style="fill:none;stroke:#F9F9F9;stroke-linecap:round;stroke-miterlimit:10;" x1="383.502" y1="170.694" x2="419.136" y2="170.694"/>
		</g>
		<g>
			
				<rect x="513.013" y="123.259" transform="matrix(0.6428 0.766 -0.766 0.6428 341.5418 -361.5585)" style="fill:#CBDAFC;" width="90.881" height="124.363"/>
			
				<line style="fill:none;stroke:#F9F9F9;stroke-linecap:round;stroke-miterlimit:10;" x1="571.207" y1="135.714" x2="609.639" y2="181.515"/>
			
				<line style="fill:none;stroke:#F9F9F9;stroke-linecap:round;stroke-miterlimit:10;" x1="564.062" y1="141.709" x2="577.167" y2="157.327"/>
			
				<line style="fill:none;stroke:#F9F9F9;stroke-linecap:round;stroke-miterlimit:10;" x1="551.91" y1="151.905" x2="590.342" y2="197.707"/>
			
				<line style="fill:none;stroke:#F9F9F9;stroke-linecap:round;stroke-miterlimit:10;" x1="544.765" y1="157.9" x2="583.198" y2="203.702"/>
			
				<line style="fill:none;stroke:#F9F9F9;stroke-linecap:round;stroke-miterlimit:10;" x1="537.62" y1="163.896" x2="576.052" y2="209.697"/>
			
				<line style="fill:none;stroke:#F9F9F9;stroke-linecap:round;stroke-miterlimit:10;" x1="530.475" y1="169.891" x2="553.381" y2="197.189"/>
			
				<linearGradient id="SVGID_00000000204155332485100420000011000875506797897873_" gradientUnits="userSpaceOnUse" x1="543.5135" y1="203.5274" x2="643.9969" y2="136.2747">
				<stop  offset="0" style="stop-color:#000000"/>
				<stop  offset="0.628" style="stop-color:#000000;stop-opacity:0"/>
			</linearGradient>
			<polygon style="opacity:0.75;fill:url(#SVGID_00000000204155332485100420000011000875506797897873_);" points="481.611,190.6 
				583.198,138.703 610.921,200.732 540.028,260.219 			"/>
		</g>
		<g>
			
				<rect x="488.206" y="155" transform="matrix(0.342 0.9397 -0.9397 0.342 555.2126 -358.5621)" style="fill:#CBDAFC;" width="90.881" height="124.363"/>
			
				<line style="fill:none;stroke:#F9F9F9;stroke-linecap:round;stroke-miterlimit:10;" x1="562.638" y1="174.816" x2="583.087" y2="231"/>
			
				<line style="fill:none;stroke:#F9F9F9;stroke-linecap:round;stroke-miterlimit:10;" x1="553.873" y1="178.006" x2="560.847" y2="197.165"/>
			
				<line style="fill:none;stroke:#F9F9F9;stroke-linecap:round;stroke-miterlimit:10;" x1="538.968" y1="183.432" x2="559.417" y2="239.616"/>
			
				<line style="fill:none;stroke:#F9F9F9;stroke-linecap:round;stroke-miterlimit:10;" x1="530.203" y1="186.622" x2="550.652" y2="242.806"/>
			
				<line style="fill:none;stroke:#F9F9F9;stroke-linecap:round;stroke-miterlimit:10;" x1="521.438" y1="189.812" x2="541.888" y2="245.996"/>
			
				<line style="fill:none;stroke:#F9F9F9;stroke-linecap:round;stroke-miterlimit:10;" x1="512.674" y1="193.002" x2="524.861" y2="226.488"/>
		</g>
	</g>
	<g>
		<path style="fill:none;stroke:#423F63;stroke-linecap:round;stroke-linejoin:round;stroke-miterlimit:10;" d="M611.86,331.084
			c0-2.185-1.771-3.956-3.956-3.956c-2.185,0-3.956,1.771-3.956,3.956c0,2.185,1.771,3.956,3.956,3.956
			C610.089,335.04,611.86,333.269,611.86,331.084z"/>
		<circle style="fill:none;stroke:#F9F9F9;stroke-linecap:round;stroke-miterlimit:10;" cx="115.689" cy="388.011" r="2.275"/>
		<circle style="fill:none;stroke:#F9F9F9;stroke-linecap:round;stroke-miterlimit:10;" cx="439.63" cy="391.405" r="6.717"/>
		
			<circle style="fill:none;stroke:#423F63;stroke-linecap:round;stroke-linejoin:round;stroke-miterlimit:10;" cx="478.526" cy="88.348" r="2.275"/>
		
			<circle style="fill:none;stroke:#423F63;stroke-linecap:round;stroke-linejoin:round;stroke-miterlimit:10;" cx="282.657" cy="92.362" r="2.275"/>
		
			<circle style="fill:none;stroke:#423F63;stroke-linecap:round;stroke-linejoin:round;stroke-miterlimit:10;" cx="65.151" cy="264.763" r="6.717"/>
		<path style="fill:none;stroke:#423F63;stroke-linecap:round;stroke-linejoin:round;stroke-miterlimit:10;" d="M124.887,122.956
			c0-2.185-1.771-3.956-3.956-3.956c-2.185,0-3.956,1.771-3.956,3.956c0,2.185,1.771,3.956,3.956,3.956
			C123.116,126.912,124.887,125.141,124.887,122.956z"/>
		<path style="fill:none;stroke:#423F63;stroke-linecap:round;stroke-linejoin:round;stroke-miterlimit:10;" d="M521.521,83.964
			c0-2.185-1.771-3.956-3.956-3.956c-2.185,0-3.956,1.771-3.956,3.956s1.771,3.956,3.956,3.956
			C519.75,87.92,521.521,86.149,521.521,83.964z"/>
	</g>
	<g>
		
			<linearGradient id="SVGID_00000074407695745778468860000013147475311503320223_" gradientUnits="userSpaceOnUse" x1="524.5217" y1="232.8754" x2="572.648" y2="232.8754">
			<stop  offset="0" style="stop-color:#ADC4FE"/>
			<stop  offset="1" style="stop-color:#CBDAFC"/>
		</linearGradient>
		<path style="fill:url(#SVGID_00000074407695745778468860000013147475311503320223_);" d="M528.417,218.222
			c0,0,6.377,9.662,17.214,12.835c10.836,3.173,28.095,4.092,26.965,12.538c-1.13,8.446-32.569,2.533-43.097-10.519
			C518.971,220.025,528.417,218.222,528.417,218.222z"/>
		
			<linearGradient id="SVGID_00000042735518587442998570000010218334875448449963_" gradientUnits="userSpaceOnUse" x1="527.762" y1="281.6448" x2="585.3123" y2="281.6448">
			<stop  offset="0.004" style="stop-color:#60BEC8"/>
			<stop  offset="1" style="stop-color:#79D7DB"/>
		</linearGradient>
		<path style="fill:url(#SVGID_00000042735518587442998570000010218334875448449963_);" d="M529.787,229.623
			c8.758,10.731,63.599,19.245,54.513,60.779c-9.086,41.534-56.538,43.265-56.538,43.265L529.787,229.623z"/>
		<g>
			
				<linearGradient id="SVGID_00000027576625509238975220000016397973264901016754_" gradientUnits="userSpaceOnUse" x1="514.095" y1="356.9176" x2="485.5891" y2="394.6616">
				<stop  offset="0.004" style="stop-color:#67B292"/>
				<stop  offset="1" style="stop-color:#7AC8A9"/>
			</linearGradient>
			<path style="fill:url(#SVGID_00000027576625509238975220000016397973264901016754_);" d="M502.098,355.515
				c-0.108,11.141-6.814,15.683-15.792,20.118c-8.977,4.435-11.681,16.657,0,18.82s29.42-8.112,31.259-33.963L502.098,355.515z"/>
			<path style="fill:none;stroke:#F9F9F9;stroke-linecap:round;stroke-miterlimit:10;" d="M510.38,358.179
				c-9.105,24.927-18.401,26.509-18.401,26.509"/>
		</g>
		
			<linearGradient id="SVGID_00000136374751901175580900000012004648326631059079_" gradientUnits="userSpaceOnUse" x1="513.7791" y1="371.4465" x2="540.7598" y2="371.4465">
			<stop  offset="0.004" style="stop-color:#60BEC8"/>
			<stop  offset="1" style="stop-color:#79D7DB"/>
		</linearGradient>
		<path style="fill:url(#SVGID_00000136374751901175580900000012004648326631059079_);" d="M513.779,360.815
			c1.298,12.367,8.22,24.553,17.63,25.742c9.41,1.19,12.979-4.002,4.759-9.302c-8.22-5.3-15.359-7.139-17.738-21.091
			L513.779,360.815z"/>
		
			<linearGradient id="SVGID_00000057124511155842725920000017956621715259079092_" gradientUnits="userSpaceOnUse" x1="517.3539" y1="360.114" x2="554.856" y2="360.114">
			<stop  offset="0" style="stop-color:#ADC4FE"/>
			<stop  offset="1" style="stop-color:#CBDAFC"/>
		</linearGradient>
		<path style="fill:url(#SVGID_00000057124511155842725920000017956621715259079092_);" d="M528.813,344.525
			c22.497-3.72,29.312,6.988,24.661,20.292c-4.651,13.304-24.217,18.328-36.12-2.03L528.813,344.525z"/>
		
			<linearGradient id="SVGID_00000114766096211592877010000002972526558818620854_" gradientUnits="userSpaceOnUse" x1="529.8951" y1="323.7834" x2="557.9807" y2="323.7834">
			<stop  offset="0" style="stop-color:#ADC4FE"/>
			<stop  offset="1" style="stop-color:#CBDAFC"/>
		</linearGradient>
		<path style="fill:url(#SVGID_00000114766096211592877010000002972526558818620854_);" d="M529.895,322.201
			c9.951,3.461,20.727-11.033,26.642-7.247c5.914,3.786-7.06,22.515-25.883,17.423L529.895,322.201z"/>
		<g>
			
				<linearGradient id="SVGID_00000170236435856639875210000009502991249137392289_" gradientUnits="userSpaceOnUse" x1="549.0708" y1="347.42" x2="567.2686" y2="363.2442">
				<stop  offset="0.004" style="stop-color:#67B292"/>
				<stop  offset="1" style="stop-color:#7AC8A9"/>
			</linearGradient>
			<path style="fill:url(#SVGID_00000170236435856639875210000009502991249137392289_);" d="M530.544,335.505
				c0,0,24.032-5.732,33.756,3.677c9.725,9.41,12.753,28.879,3.884,37.748s-13.613-5.624-13.134-17.306
				c0.479-11.681-9.364-15.928-23.533-15.102L530.544,335.505z"/>
			<path style="fill:none;stroke:#F9F9F9;stroke-linecap:round;stroke-miterlimit:10;" d="M531.061,340.293
				c17.028-1.495,34.83,1.422,34.039,23.37"/>
		</g>
		
			<linearGradient id="SVGID_00000105421537058136547880000007964074970066137018_" gradientUnits="userSpaceOnUse" x1="528.5278" y1="332.4511" x2="569.9344" y2="336.9346">
			<stop  offset="0.004" style="stop-color:#67B292"/>
			<stop  offset="1" style="stop-color:#7AC8A9"/>
		</linearGradient>
		<path style="fill:url(#SVGID_00000105421537058136547880000007964074970066137018_);" d="M529.895,336.262
			c11.465,4.759,19.361-0.865,27.365-0.433c8.004,0.433,13.304,13.605,20.334,8.695c7.031-4.91-1.082-14.428-13.087-16.375
			c-12.006-1.947-34.612,4.435-34.612,4.435V336.262z"/>
		<g>
			
				<linearGradient id="SVGID_00000036938108875936540910000016688869628445626513_" gradientUnits="userSpaceOnUse" x1="235.3067" y1="167.4182" x2="247.966" y2="122.3193">
				<stop  offset="0.004" style="stop-color:#67B292"/>
				<stop  offset="1" style="stop-color:#7AC8A9"/>
			</linearGradient>
			<path style="fill:url(#SVGID_00000036938108875936540910000016688869628445626513_);" d="M227.476,162.339
				c-3.569-11.141-3.732-40.132,6.67-54.225c17.883-24.228,43.841-14.133,35.765,7.383c-9.905,26.387-21.56,22.325-20.479,42.624
				L227.476,162.339z"/>
			<path style="fill:none;stroke:#F9F9F9;stroke-linecap:round;stroke-miterlimit:10;" d="M238.231,160.273
				c-5.967-26.793,15.792-48.371,15.792-48.371"/>
		</g>
		<g>
			
				<linearGradient id="SVGID_00000161609784589414502350000017311021331011638172_" gradientUnits="userSpaceOnUse" x1="215.0891" y1="199.324" x2="198.0782" y2="144.7306">
				<stop  offset="0.004" style="stop-color:#60BEC8"/>
				<stop  offset="1" style="stop-color:#79D7DB"/>
			</linearGradient>
			<path style="fill:url(#SVGID_00000161609784589414502350000017311021331011638172_);" d="M215.687,204.738
				c-4.615-20.19-44.707-42.832-40.38-74.559c4.326-31.727,30.285-29.276,38.361-5.336
				C221.744,148.783,215.687,204.738,215.687,204.738z"/>
			<path style="fill:none;stroke:#F9F9F9;stroke-linecap:round;stroke-miterlimit:10;" d="M194.539,131.626
				c1.593,19.655,17.492,33.997,21.147,73.112"/>
		</g>
		
			<linearGradient id="SVGID_00000103263563960855165020000002588616895702115464_" gradientUnits="userSpaceOnUse" x1="218.4706" y1="166.6654" x2="218.4706" y2="115.4969">
			<stop  offset="0" style="stop-color:#ADC4FE"/>
			<stop  offset="1" style="stop-color:#CBDAFC"/>
		</linearGradient>
		<path style="fill:url(#SVGID_00000103263563960855165020000002588616895702115464_);" d="M221.599,166.665
			c5.624-13.556,11.826-50.403-5.588-51.16C198.597,114.748,221.599,166.665,221.599,166.665z"/>
		
			<linearGradient id="SVGID_00000123398887612954970980000007797069738222295464_" gradientUnits="userSpaceOnUse" x1="170.6311" y1="182.8895" x2="212.9014" y2="182.8895">
			<stop  offset="0" style="stop-color:#ADC4FE"/>
			<stop  offset="1" style="stop-color:#CBDAFC"/>
		</linearGradient>
		<path style="fill:url(#SVGID_00000123398887612954970980000007797069738222295464_);" d="M212.874,208.199
			c-4.867-16.008-13.304-28.976-29.528-35.309c-16.224-6.333-15.482-15.305-5.841-15.31
			C193.622,157.571,213.74,181.916,212.874,208.199"/>
		<g>
			
				<linearGradient id="SVGID_00000170967826831841969220000003416471396479985070_" gradientUnits="userSpaceOnUse" x1="218.8402" y1="246.8511" x2="178.2248" y2="191.994">
				<stop  offset="0.004" style="stop-color:#67B292"/>
				<stop  offset="1" style="stop-color:#7AC8A9"/>
			</linearGradient>
			<path style="fill:url(#SVGID_00000170967826831841969220000003416471396479985070_);" d="M215.11,271.798
				c-2.307-17.306-7.788-43.264-35.765-50.187s-32.593-28.699-22.209-42.688c10.383-13.989,57.253-4.038,63.455,33.891
				C226.791,250.743,215.11,271.798,215.11,271.798z"/>
			<path style="fill:none;stroke:#F9F9F9;stroke-linecap:round;stroke-miterlimit:10;" d="M173.715,194.402
				c0,0,45.433,17.319,41.395,77.396"/>
		</g>
	</g>
	<g>
		<g>
			<g>
				<path style="fill:#FAB217;" d="M517.24,363.663H226.214c-8.363,0-15.143-6.78-15.143-15.143V168.252
					c0-8.363,6.78-15.143,15.143-15.143H517.24c8.363,0,15.143,6.78,15.143,15.143v180.269
					C532.383,356.884,525.603,363.663,517.24,363.663z"/>
				
					<path style="fill:#F4A019;stroke:#EDF2FE;stroke-width:1.0936;stroke-linecap:round;stroke-linejoin:round;stroke-miterlimit:10;" d="
					M377.784,350.107c0-3.345-2.712-6.057-6.057-6.057c-3.345,0-6.057,2.712-6.057,6.057c0,3.345,2.712,6.057,6.057,6.057
					C375.072,356.164,377.784,353.452,377.784,350.107z"/>
				
					<circle style="fill:#F4A019;stroke:#EDF2FE;stroke-width:1.0936;stroke-linecap:round;stroke-linejoin:round;stroke-miterlimit:10;" cx="232.992" cy="162.339" r="2.596"/>
				
					<circle style="fill:#F4A019;stroke:#EDF2FE;stroke-width:1.0936;stroke-linecap:round;stroke-linejoin:round;stroke-miterlimit:10;" cx="242.717" cy="162.339" r="2.596"/>
				
					<path style="fill:#F4A019;stroke:#EDF2FE;stroke-width:1.0936;stroke-linecap:round;stroke-linejoin:round;stroke-miterlimit:10;" d="
					M375.747,161.245c0-2.22-1.8-4.02-4.02-4.02c-2.22,0-4.02,1.8-4.02,4.02s1.8,4.02,4.02,4.02
					C373.947,165.265,375.747,163.465,375.747,161.245z"/>
			</g>
			
				<rect x="287.92" y="109.069" transform="matrix(-1.836970e-16 1 -1 -1.836970e-16 625.0476 -118.4068)" style="fill:#EDF2FE;" width="167.614" height="288.502"/>
			<g>
				<defs>
					
						<rect id="SVGID_00000041267352471535275990000009300647574323910588_" x="287.92" y="109.069" transform="matrix(-1.836970e-16 1 -1 -1.836970e-16 625.0476 -118.4068)" width="167.614" height="288.502"/>
				</defs>
				<clipPath id="SVGID_00000103241821948863850170000002762744399408740777_">
					<use xlink:href="#SVGID_00000041267352471535275990000009300647574323910588_"  style="overflow:visible;"/>
				</clipPath>
				<g style="clip-path:url(#SVGID_00000103241821948863850170000002762744399408740777_);">
					<g>
						<rect x="330.386" y="226.992" style="fill:#CBDAFC;" width="31.583" height="47.591"/>
						
							<line style="fill:none;stroke:#EDF2FE;stroke-width:1.0936;stroke-linecap:round;stroke-linejoin:round;stroke-miterlimit:10;" x1="357.57" y1="235.212" x2="334.784" y2="235.212"/>
						
							<line style="fill:none;stroke:#EDF2FE;stroke-width:1.0936;stroke-linecap:round;stroke-linejoin:round;stroke-miterlimit:10;" x1="357.57" y1="243.595" x2="334.784" y2="243.595"/>
						
							<line style="fill:none;stroke:#EDF2FE;stroke-width:1.0936;stroke-linecap:round;stroke-linejoin:round;stroke-miterlimit:10;" x1="357.57" y1="251.977" x2="334.784" y2="251.977"/>
						
							<line style="fill:none;stroke:#EDF2FE;stroke-width:1.0936;stroke-linecap:round;stroke-linejoin:round;stroke-miterlimit:10;" x1="342.86" y1="260.36" x2="334.784" y2="260.36"/>
					</g>
					<g>
						<rect x="407.583" y="226.992" style="fill:#CBDAFC;" width="31.583" height="47.591"/>
						
							<line style="fill:none;stroke:#EDF2FE;stroke-width:1.0936;stroke-linecap:round;stroke-linejoin:round;stroke-miterlimit:10;" x1="434.767" y1="235.212" x2="411.981" y2="235.212"/>
						
							<line style="fill:none;stroke:#EDF2FE;stroke-width:1.0936;stroke-linecap:round;stroke-linejoin:round;stroke-miterlimit:10;" x1="434.767" y1="243.595" x2="411.981" y2="243.595"/>
						
							<line style="fill:none;stroke:#EDF2FE;stroke-width:1.0936;stroke-linecap:round;stroke-linejoin:round;stroke-miterlimit:10;" x1="434.767" y1="251.977" x2="411.981" y2="251.977"/>
						
							<line style="fill:none;stroke:#EDF2FE;stroke-width:1.0936;stroke-linecap:round;stroke-linejoin:round;stroke-miterlimit:10;" x1="420.057" y1="260.36" x2="411.981" y2="260.36"/>
					</g>
					<g>
						<rect x="459.777" y="226.992" style="fill:#CBDAFC;" width="31.583" height="47.591"/>
						
							<line style="fill:none;stroke:#EDF2FE;stroke-width:1.0936;stroke-linecap:round;stroke-linejoin:round;stroke-miterlimit:10;" x1="486.961" y1="235.212" x2="464.175" y2="235.212"/>
						
							<line style="fill:none;stroke:#EDF2FE;stroke-width:1.0936;stroke-linecap:round;stroke-linejoin:round;stroke-miterlimit:10;" x1="486.961" y1="243.595" x2="464.175" y2="243.595"/>
						
							<line style="fill:none;stroke:#EDF2FE;stroke-width:1.0936;stroke-linecap:round;stroke-linejoin:round;stroke-miterlimit:10;" x1="486.961" y1="251.977" x2="464.175" y2="251.977"/>
						
							<line style="fill:none;stroke:#EDF2FE;stroke-width:1.0936;stroke-linecap:round;stroke-linejoin:round;stroke-miterlimit:10;" x1="472.251" y1="260.36" x2="464.175" y2="260.36"/>
					</g>
					<g>
						<rect x="511.97" y="226.992" style="fill:#CBDAFC;" width="31.583" height="47.591"/>
						
							<line style="fill:none;stroke:#EDF2FE;stroke-width:1.0936;stroke-linecap:round;stroke-linejoin:round;stroke-miterlimit:10;" x1="539.155" y1="235.212" x2="516.369" y2="235.212"/>
						
							<line style="fill:none;stroke:#EDF2FE;stroke-width:1.0936;stroke-linecap:round;stroke-linejoin:round;stroke-miterlimit:10;" x1="539.155" y1="243.595" x2="516.369" y2="243.595"/>
						
							<line style="fill:none;stroke:#EDF2FE;stroke-width:1.0936;stroke-linecap:round;stroke-linejoin:round;stroke-miterlimit:10;" x1="539.155" y1="251.977" x2="516.369" y2="251.977"/>
						
							<line style="fill:none;stroke:#EDF2FE;stroke-width:1.0936;stroke-linecap:round;stroke-linejoin:round;stroke-miterlimit:10;" x1="524.445" y1="260.36" x2="516.369" y2="260.36"/>
					</g>
					<g>
						<rect x="278.192" y="226.992" style="fill:#CBDAFC;" width="31.583" height="47.591"/>
						
							<line style="fill:none;stroke:#EDF2FE;stroke-width:1.0936;stroke-linecap:round;stroke-linejoin:round;stroke-miterlimit:10;" x1="305.376" y1="235.212" x2="282.59" y2="235.212"/>
						
							<line style="fill:none;stroke:#EDF2FE;stroke-width:1.0936;stroke-linecap:round;stroke-linejoin:round;stroke-miterlimit:10;" x1="305.376" y1="243.595" x2="282.59" y2="243.595"/>
						
							<line style="fill:none;stroke:#EDF2FE;stroke-width:1.0936;stroke-linecap:round;stroke-linejoin:round;stroke-miterlimit:10;" x1="297.949" y1="251.977" x2="282.59" y2="251.977"/>
					</g>
					<g>
						<rect x="225.998" y="226.992" style="fill:#CBDAFC;" width="31.583" height="47.591"/>
						
							<line style="fill:none;stroke:#EDF2FE;stroke-width:1.0936;stroke-linecap:round;stroke-linejoin:round;stroke-miterlimit:10;" x1="253.183" y1="235.212" x2="230.397" y2="235.212"/>
						
							<line style="fill:none;stroke:#EDF2FE;stroke-width:1.0936;stroke-linecap:round;stroke-linejoin:round;stroke-miterlimit:10;" x1="253.183" y1="243.595" x2="230.397" y2="243.595"/>
						
							<line style="fill:none;stroke:#EDF2FE;stroke-width:1.0936;stroke-linecap:round;stroke-linejoin:round;stroke-miterlimit:10;" x1="253.183" y1="251.977" x2="230.397" y2="251.977"/>
					</g>
				</g>
			</g>
		</g>
		<g>
			<path style="fill:#FBC942;" d="M427.681,226.638c-13.948-24.159-45.616-31.71-69.109-15.714
				c-19.167,13.05-26.359,38.358-16.854,59.508c11.085,24.663,39.34,34.87,62.98,24.816l67.37,116.688
				c1.632,2.826,5.246,3.795,8.072,2.163l0,0c2.826-1.632,3.795-5.246,2.163-8.072l-67.37-116.688
				C434.161,274.871,440.018,248.005,427.681,226.638z"/>
			<path style="fill:#D2DFFF;" d="M406.796,287.064c-20.003,11.549-45.672,4.67-57.22-15.332
				c-11.548-20.002-4.671-45.671,15.332-57.22c20.003-11.549,45.671-4.671,57.22,15.332
				C433.676,249.846,426.799,275.515,406.796,287.064z"/>
			<g>
				<defs>
					<path id="SVGID_00000106106399249213904120000009448404479676926095_" d="M406.796,287.064
						c-20.003,11.549-45.672,4.67-57.22-15.332c-11.548-20.002-4.671-45.671,15.332-57.22c20.003-11.549,45.671-4.671,57.22,15.332
						C433.676,249.846,426.799,275.515,406.796,287.064z"/>
				</defs>
				<clipPath id="SVGID_00000181062069201147385560000014532479768750361758_">
					<use xlink:href="#SVGID_00000106106399249213904120000009448404479676926095_"  style="overflow:visible;"/>
				</clipPath>
				<g style="clip-path:url(#SVGID_00000181062069201147385560000014532479768750361758_);">
					<rect x="323.537" y="217.717" style="fill:#ADC4FE;" width="49.056" height="62.968"/>
					
						<line style="fill:none;stroke:#EDF2FE;stroke-width:1.6405;stroke-linecap:round;stroke-linejoin:round;stroke-miterlimit:10;" x1="365.761" y1="228.594" x2="330.369" y2="228.594"/>
					
						<line style="fill:none;stroke:#EDF2FE;stroke-width:1.6405;stroke-linecap:round;stroke-linejoin:round;stroke-miterlimit:10;" x1="365.761" y1="239.685" x2="330.369" y2="239.685"/>
					
						<line style="fill:none;stroke:#EDF2FE;stroke-width:1.6405;stroke-linecap:round;stroke-linejoin:round;stroke-miterlimit:10;" x1="365.761" y1="250.776" x2="330.369" y2="250.776"/>
					
						<line style="fill:none;stroke:#E59383;stroke-width:1.1531;stroke-linecap:round;stroke-linejoin:round;stroke-miterlimit:10;" x1="342.913" y1="261.866" x2="330.369" y2="261.866"/>
				</g>
				<g style="clip-path:url(#SVGID_00000181062069201147385560000014532479768750361758_);">
					<rect x="403.204" y="217.717" style="fill:#ADC4FE;" width="49.056" height="62.968"/>
					
						<line style="fill:none;stroke:#EDF2FE;stroke-width:1.6405;stroke-linecap:round;stroke-linejoin:round;stroke-miterlimit:10;" x1="445.428" y1="228.594" x2="410.036" y2="228.594"/>
					
						<line style="fill:none;stroke:#EDF2FE;stroke-width:1.6405;stroke-linecap:round;stroke-linejoin:round;stroke-miterlimit:10;" x1="445.428" y1="239.685" x2="410.036" y2="239.685"/>
					
						<line style="fill:none;stroke:#EDF2FE;stroke-width:1.6405;stroke-linecap:round;stroke-linejoin:round;stroke-miterlimit:10;" x1="445.428" y1="250.776" x2="410.036" y2="250.776"/>
					
						<line style="fill:none;stroke:#EDF2FE;stroke-width:1.6405;stroke-linecap:round;stroke-linejoin:round;stroke-miterlimit:10;" x1="422.58" y1="261.866" x2="410.036" y2="261.866"/>
				</g>
			</g>
		</g>
	</g>
	<g>
		<g>
			
				<rect x="604.334" y="265.475" transform="matrix(0.9848 0.1736 -0.1736 0.9848 61.1472 -108.4732)" style="fill:#CBDAFC;" width="92.334" height="59.494"/>
			<polygon style="fill:#E6EDFC;" points="610.201,257.91 662.816,225.382 701.132,273.943 			"/>
			<polygon style="fill:#BBD2F9;" points="610.201,257.91 639.39,299.461 659.492,303.005 701.132,273.943 			"/>
			<polygon style="fill:#D2DFFF;" points="660.871,297.05 640.131,293.393 599.87,316.5 690.801,332.533 			"/>
		</g>
		<g>
			
				<rect x="603.203" y="162.209" transform="matrix(0.866 -0.5 0.5 0.866 -7.8675 344.2313)" style="fill:#CBDAFC;" width="70.412" height="49.175"/>
			
				<line style="fill:none;stroke:#F9F9F9;stroke-linecap:round;stroke-miterlimit:10;" x1="609.57" y1="186.698" x2="637.492" y2="170.577"/>
			
				<line style="fill:none;stroke:#F9F9F9;stroke-linecap:round;stroke-miterlimit:10;" x1="614.668" y1="195.528" x2="626.317" y2="188.803"/>
			
				<line style="fill:none;stroke:#F9F9F9;stroke-linecap:round;stroke-miterlimit:10;" x1="644.262" y1="190.215" x2="661.221" y2="180.424"/>
			
				<line style="fill:none;stroke:#F9F9F9;stroke-linecap:round;stroke-miterlimit:10;" x1="619.766" y1="204.358" x2="630.387" y2="198.226"/>
		</g>
		<g>
			
				<rect x="70.943" y="272.01" transform="matrix(0.9397 -0.342 0.342 0.9397 -96.1444 58.2523)" style="fill:#CBDAFC;" width="92.334" height="59.494"/>
			<polygon style="fill:#D2DFFF;" points="127.005,298.155 107.215,305.358 83.901,345.5 170.667,313.919 			"/>
			<polygon style="fill:#E6EDFC;" points="63.553,289.594 121.017,312.491 150.319,258.013 			"/>
		</g>
	</g>
	<g>
		<path style="fill:none;stroke:#F9F9F9;stroke-linecap:round;stroke-miterlimit:10;" d="M190.557,353.461
			c0,0-1.582,16.747,3.429,25.055"/>
		<path style="fill:none;stroke:#F9F9F9;stroke-linecap:round;stroke-miterlimit:10;" d="M131.574,403.175
			c0,0,7.95,5.802,8.214,15.033"/>
		<path style="fill:#F27F97;" d="M143.196,418.208c3.845-13.714,27.581-7.121,37.866-32.176
			c10.286-25.055,40.439-67.278,90.365-53.499c54.595,15.067,43.518,42.217,106.909,42.422c37.027,0.12,43.78,43.253,43.78,43.253
			H143.196z"/>
		<g>
			
				<linearGradient id="SVGID_00000078030805957277836640000015847368483982081419_" gradientUnits="userSpaceOnUse" x1="146.9146" y1="380.5074" x2="175.3982" y2="435.1009">
				<stop  offset="0" style="stop-color:#ADC4FE"/>
				<stop  offset="1" style="stop-color:#CBDAFC"/>
			</linearGradient>
			<path style="fill:url(#SVGID_00000078030805957277836640000015847368483982081419_);" d="M158.381,418.208
				c0-8.308-18.857-20.835-25.187-34.022s6.857-22.022,22.681-8.308s23.575,42.33,23.575,42.33H158.381z"/>
			<path style="fill:none;stroke:#F9F9F9;stroke-linecap:round;stroke-miterlimit:10;" d="M145.854,384.582
				c0,0,21.099,17.407,22.154,33.626"/>
		</g>
		<g>
			
				<linearGradient id="SVGID_00000087383154339618168520000017083652639186703003_" gradientUnits="userSpaceOnUse" x1="207.2172" y1="437.7563" x2="177.1513" y2="372.4815">
				<stop  offset="0.004" style="stop-color:#67B292"/>
				<stop  offset="1" style="stop-color:#7AC8A9"/>
			</linearGradient>
			<path style="fill:url(#SVGID_00000087383154339618168520000017083652639186703003_);" d="M177.898,418.208
				c-10.681-14.11-32.308-56.571-13.451-66.066c18.857-9.494,12.264,30.33,56.703,66.066H177.898z"/>
			<path style="fill:none;stroke:#F9F9F9;stroke-linecap:round;stroke-miterlimit:10;" d="M172.623,371.923
				c0,0,7.121,27.824,24,46.286"/>
		</g>
	</g>
</g>
</svg>
